<?xml version="1.0" encoding="UTF-8"?>
<svg xmlns="http://www.w3.org/2000/svg" xmlns:xlink="http://www.w3.org/1999/xlink" width="854" height="480" viewBox="0 0 854 480">
<defs>
<g>
<g id="glyph-0-0">
<path d="M 5.828125 -4.484375 L 3.953125 -2.609375 L 5.828125 -0.734375 L 5.359375 -0.28125 L 3.484375 -2.140625 L 1.609375 -0.28125 L 1.15625 -0.734375 L 3.015625 -2.609375 L 1.15625 -4.484375 L 1.609375 -4.953125 L 3.484375 -3.078125 L 5.359375 -4.953125 Z "/>
</g>
<g id="glyph-0-1">
</g>
<g id="glyph-0-2">
<path d="M 1.0625 -4.625 L 0.609375 -4.625 L 0.609375 -5.703125 C 0.898438 -5.859375 1.191406 -5.976562 1.484375 -6.0625 C 1.773438 -6.144531 2.0625 -6.1875 2.34375 -6.1875 C 2.976562 -6.1875 3.476562 -6.03125 3.84375 -5.71875 C 4.207031 -5.414062 4.390625 -5 4.390625 -4.46875 C 4.390625 -3.875 3.976562 -3.164062 3.15625 -2.34375 C 3.082031 -2.28125 3.03125 -2.234375 3 -2.203125 L 1.46875 -0.671875 L 4 -0.671875 L 4 -1.421875 L 4.484375 -1.421875 L 4.484375 0 L 0.5625 0 L 0.5625 -0.4375 L 2.40625 -2.28125 C 2.8125 -2.6875 3.097656 -3.054688 3.265625 -3.390625 C 3.441406 -3.734375 3.53125 -4.09375 3.53125 -4.46875 C 3.53125 -4.882812 3.425781 -5.207031 3.21875 -5.4375 C 3.007812 -5.664062 2.71875 -5.78125 2.34375 -5.78125 C 1.945312 -5.78125 1.644531 -5.679688 1.4375 -5.484375 C 1.226562 -5.296875 1.101562 -5.007812 1.0625 -4.625 Z "/>
</g>
</g>
</defs>
<g fill="rgb(100%, 100%, 100%)" fill-opacity="1">
<use xlink:href="#glyph-0-0" x="30" y="27.735352"/>
<use xlink:href="#glyph-0-1" x="37" y="27.735352"/>
<use xlink:href="#glyph-0-2" x="40" y="27.735352"/>
</g>
</svg>
